<svg width="24" height="24" viewBox="0 0 24 24" fill="none" xmlns="http://www.w3.org/2000/svg">
<path d="M2.9579 15.0568L11.0405 1.9886L11.5205 1.48303L17.6973 5.6014L17.7396 8.08665L19.2471 10.5463L12.5873 21.1038L2.9579 15.0568Z" fill="#FCF1E0"/>
<path d="M20.3823 11.0919L21.2303 11.6218C21.5178 11.1502 21.3712 10.5307 20.9028 10.238L20.3823 11.0919ZM18.674 6.14767L19.522 6.67759C19.8095 6.20602 19.6629 5.58649 19.1945 5.29383L18.674 6.14767ZM11.4546 1.63647L11.9751 0.782631C11.5067 0.489965 10.894 0.634991 10.6065 1.10656L11.4546 1.63647ZM2.65287 16.0742L1.80482 15.5443C1.51734 16.0158 1.66398 16.6354 2.13234 16.928L2.65287 16.0742ZM13.292 22.7223L12.7715 23.5761C13.2399 23.8688 13.8526 23.7237 14.1401 23.2522L13.292 22.7223ZM15.7054 18.7635C16.1737 19.0562 16.7865 18.9112 17.074 18.4396C17.3614 17.968 17.2148 17.3485 16.7464 17.0558L15.7054 18.7635ZM6.1073 10.4078C5.63893 10.1151 5.0262 10.2601 4.73872 10.7317C4.45124 11.2033 4.59787 11.8228 5.06624 12.1155L6.1073 10.4078ZM9.04119 5.5952C8.57283 5.30254 7.9601 5.44756 7.67262 5.91913C7.38514 6.39069 7.53177 7.01022 8.00013 7.30289L9.04119 5.5952ZM18.6393 13.951C19.1076 14.2436 19.7204 14.0986 20.0079 13.627C20.2953 13.1555 20.1487 12.5359 19.6803 12.2433L18.6393 13.951ZM7.1244 18.8683C6.83692 19.3399 6.98355 19.9594 7.45192 20.2521C7.92028 20.5447 8.53301 20.3997 8.82049 19.9281L7.1244 18.8683ZM17.6222 5.49043C17.9097 5.01887 17.763 4.39934 17.2947 4.10667C16.8263 3.814 16.2136 3.95903 15.9261 4.43059L17.6222 5.49043ZM20.9028 10.238C19.7479 9.51636 19.222 9.02533 19.0355 8.59161C18.901 8.27869 18.858 7.76686 19.522 6.67759L17.8259 5.61775C17.023 6.93476 16.6942 8.18275 17.2106 9.38422C17.6751 10.4649 18.7369 11.2428 19.8617 11.9457L20.9028 10.238ZM19.1945 5.29383L11.9751 0.782631L10.934 2.49032L18.1535 7.00151L19.1945 5.29383ZM10.6065 1.10656L1.80482 15.5443L3.50092 16.6041L12.3026 2.16639L10.6065 1.10656ZM2.13234 16.928L12.7715 23.5761L13.8125 21.8684L3.1734 15.2203L2.13234 16.928ZM14.1401 23.2522L21.2303 11.6218L19.5342 10.562L12.444 22.1923L14.1401 23.2522ZM16.7464 17.0558L6.1073 10.4078L5.06624 12.1155L15.7054 18.7635L16.7464 17.0558ZM8.00013 7.30289L18.6393 13.951L19.6803 12.2433L9.04119 5.5952L8.00013 7.30289ZM8.82049 19.9281L17.6222 5.49043L15.9261 4.43059L7.1244 18.8683L8.82049 19.9281Z" fill="#FD9222"/>
</svg>
